<?xml version="1.0" standalone="no"?>
<!DOCTYPE svg PUBLIC "-//W3C//DTD SVG 20010904//EN"
 "http://www.w3.org/TR/2001/REC-SVG-20010904/DTD/svg10.dtd">
<svg version="1.0" xmlns="http://www.w3.org/2000/svg"
 width="200.000000pt" height="200.000000pt" viewBox="0 0 200.000000 200.000000"
 preserveAspectRatio="xMidYMid meet">

<g transform="translate(0.000000,200.000000) scale(0.100000,-0.100000)"
fill="#000000" stroke="none">
<path d="M120 1095 l0 -345 90 0 89 0 3 138 3 137 105 0 105 0 3 -137 3 -138
89 0 90 0 0 345 0 345 -90 0 -89 0 -3 -127 -3 -128 -105 0 -105 0 -3 128 -3
127 -89 0 -90 0 0 -345z"/>
<path d="M770 1095 l0 -345 90 0 90 0 0 115 0 115 38 0 37 0 60 -115 60 -115
97 0 c54 0 98 3 98 6 0 3 -32 63 -70 132 l-71 126 34 31 c50 44 68 81 74 144
8 82 -11 138 -62 187 -57 55 -99 64 -304 64 l-171 0 0 -345z m339 181 c30 -28
28 -89 -4 -121 -21 -22 -33 -25 -90 -25 l-65 0 0 86 0 86 69 -4 c50 -2 75 -9
90 -22z"/>
<path d="M1534 1420 c-140 -43 -226 -198 -211 -379 15 -183 123 -303 285 -318
79 -7 182 23 238 71 139 119 149 415 18 550 -59 60 -107 79 -209 83 -49 1
-104 -2 -121 -7z m143 -156 c3 -9 1 -25 -5 -35 -7 -10 -12 -26 -12 -35 0 -13
3 -14 15 -4 8 7 15 21 15 31 0 34 32 40 93 19 31 -11 72 -20 92 -20 38 0 48
-18 15 -27 -11 -3 -20 -8 -20 -12 0 -4 -16 -13 -35 -21 -19 -8 -35 -17 -35
-21 0 -4 -11 -10 -25 -13 -14 -4 -25 -13 -25 -22 0 -8 -7 -17 -15 -20 -10 -4
-13 -14 -9 -28 3 -14 -2 -28 -15 -40 -11 -10 -17 -24 -14 -32 3 -8 1 -20 -5
-27 -5 -6 -10 -19 -11 -27 -7 -74 -14 -101 -22 -89 -7 12 -10 12 -18 1 -5 -9
-10 7 -15 44 -4 32 -11 64 -17 71 -6 7 -9 19 -6 26 3 8 -4 22 -15 31 -12 11
-18 25 -15 36 3 11 -1 24 -9 31 -8 6 -14 16 -14 21 0 10 -32 45 -37 40 -4 -4
-76 30 -83 39 -3 3 -15 9 -28 13 -35 11 -18 23 42 29 29 3 68 13 86 22 39 20
80 8 80 -24 0 -21 17 -37 27 -27 4 3 1 17 -7 30 -7 14 -10 32 -7 40 8 21 46
20 54 0z"/>
<path d="M1630 1129 c0 -15 -6 -20 -22 -19 -36 3 -44 0 -28 -10 8 -5 25 -10
38 -10 18 0 22 6 22 30 0 17 -2 30 -5 30 -3 0 -5 -9 -5 -21z"/>
<path d="M1661 1122 c-1 -32 1 -33 32 -30 17 2 31 8 29 13 -2 6 -14 9 -27 7
-18 -2 -24 2 -28 20 -3 17 -5 14 -6 -10z"/>
<path d="M1605 1050 c-8 -14 3 -30 21 -30 8 0 14 9 14 20 0 21 -24 28 -35 10z"/>
<path d="M1660 1040 c0 -15 5 -20 18 -18 9 2 17 10 17 18 0 8 -8 16 -17 18
-13 2 -18 -3 -18 -18z"/>
<path d="M1655 970 c-3 -5 -1 -10 4 -10 6 0 11 5 11 10 0 6 -2 10 -4 10 -3 0
-8 -4 -11 -10z"/>
<path d="M1640 920 c0 -5 5 -10 10 -10 6 0 10 5 10 10 0 6 -4 10 -10 10 -5 0
-10 -4 -10 -10z"/>
<path d="M205 661 c-3 -6 -1 -10 6 -9 6 2 14 -3 17 -11 3 -10 0 -12 -12 -8 -9
4 -16 2 -16 -3 0 -14 27 -13 36 1 3 6 0 18 -9 26 -10 10 -17 12 -22 4z"/>
<path d="M274 659 c-3 -6 -1 -15 6 -19 10 -6 9 -9 -1 -13 -10 -4 -9 -6 4 -6
19 -1 23 14 7 24 -6 4 -8 11 -5 16 4 5 4 9 1 9 -3 0 -8 -5 -12 -11z"/>
<path d="M332 650 c0 -14 2 -19 5 -12 2 6 2 18 0 25 -3 6 -5 1 -5 -13z"/>
<path d="M452 645 c0 -16 2 -22 5 -12 2 9 2 23 0 30 -3 6 -5 -1 -5 -18z"/>
<path d="M506 654 c-4 -10 -1 -21 6 -25 16 -11 22 5 10 27 -8 15 -10 15 -16
-2z"/>
<path d="M662 645 c0 -16 2 -22 5 -12 2 9 2 23 0 30 -3 6 -5 -1 -5 -18z"/>
<path d="M725 661 c-6 -11 13 -26 22 -17 4 3 0 6 -8 6 -11 0 -11 2 1 10 9 6
10 10 3 10 -6 0 -14 -4 -18 -9z"/>
<path d="M927 651 c3 -11 1 -21 -5 -21 -6 0 -13 8 -15 18 -4 13 -5 11 -6 -5
-1 -15 5 -23 14 -23 20 0 31 28 17 42 -8 8 -9 5 -5 -11z"/>
<path d="M1201 648 c-1 -18 4 -28 13 -28 21 0 30 20 17 33 -9 9 -11 8 -6 -5 4
-10 3 -18 -3 -18 -6 0 -13 10 -15 23 -4 19 -4 18 -6 -5z"/>
<path d="M1270 645 c0 -14 4 -25 8 -25 4 0 8 11 8 25 0 14 -4 25 -8 25 -4 0
-8 -11 -8 -25z"/>
<path d="M1390 661 c0 -6 4 -13 10 -16 6 -3 7 1 4 9 -7 18 -14 21 -14 7z"/>
<path d="M1447 663 c-14 -13 -7 -43 11 -43 14 0 14 2 3 9 -8 5 -11 16 -8 25 7
17 5 20 -6 9z"/>
<path d="M1507 663 c-14 -13 -7 -43 11 -43 14 0 14 2 3 9 -8 5 -11 16 -8 25 7
17 5 20 -6 9z"/>
<path d="M1680 647 c0 -15 4 -27 9 -27 6 0 8 10 6 21 -6 33 -15 36 -15 6z"/>
<path d="M1743 653 c1 -12 4 -20 8 -17 4 2 9 -2 12 -8 3 -7 4 -3 4 9 -1 12 -4
20 -8 17 -4 -2 -9 2 -12 8 -3 7 -4 3 -4 -9z"/>
<path d="M1818 645 c2 -14 6 -25 7 -25 1 0 5 11 7 25 3 16 1 25 -7 25 -8 0
-10 -9 -7 -25z"/>
<path d="M1871 648 c-1 -20 4 -28 17 -28 13 0 14 2 4 9 -8 4 -13 11 -12 15 1
4 -1 12 -3 19 -3 6 -6 0 -6 -15z"/>
<path d="M402 640 c0 -14 2 -19 5 -12 2 6 2 18 0 25 -3 6 -5 1 -5 -13z"/>
<path d="M561 643 c-1 -16 5 -23 17 -23 10 0 13 3 6 8 -6 4 -14 14 -17 22 -4
10 -6 8 -6 -7z"/>
<path d="M682 640 c0 -14 2 -19 5 -12 2 6 2 18 0 25 -3 6 -5 1 -5 -13z"/>
<path d="M970 638 c0 -19 2 -20 10 -8 13 19 13 30 0 30 -5 0 -10 -10 -10 -22z"/>
<path d="M997 645 c-4 -8 -2 -17 3 -20 6 -4 10 3 10 14 0 25 -6 27 -13 6z"/>
<path d="M1044 646 c-4 -9 -5 -19 -2 -21 2 -2 10 0 18 5 12 7 12 12 3 21 -10
10 -14 9 -19 -5z"/>
<path d="M1611 643 c-1 -14 5 -23 14 -23 9 0 15 9 14 23 0 21 -1 21 -8 2 l-8
-20 -5 20 c-5 18 -6 18 -7 -2z"/>
<path d="M130 642 c0 -5 7 -9 15 -9 8 0 15 4 15 9 0 4 -7 8 -15 8 -8 0 -15 -4
-15 -8z"/>
<path d="M790 628 c0 -4 7 -8 15 -8 8 0 15 4 15 8 0 5 -7 9 -15 9 -8 0 -15 -4
-15 -9z"/>
<path d="M1378 623 c7 -3 16 -2 19 1 4 3 -2 6 -13 5 -11 0 -14 -3 -6 -6z"/>
</g>
</svg>
